#!OML:ASF H:\Terrain\Walking\May29\JustinRory\Justin.ASF
:FULLY-SPECIFIED
:DEGREES
1255
root 11.4834 17.8645 13.2257 -175.573 -114.368 -182.254 
lowerback 3.49153 -1.7399 -2.86174 
upperback 1.10468 -2.41759 0.722347 
thorax -0.672131 -1.21542 2.43875 
lowerneck -16.4498 -3.01459 -10.7305 
upperneck 23.3926 -1.22135 -1.07412 
head 10.3378 -1.74573 1.21275 
rclavicle -2.46741e-14 -1.05356e-14 
rhumerus -33.9246 -18.0192 -71.0749 
rradius 28.6087 
rwrist -13.8715 
rhand -19.336 22.8865 
rfingers 7.12502 
rthumb 6.98085 -6.97836 
lclavicle -2.46741e-14 -1.05356e-14 
lhumerus -32.2077 21.3897 64.2894 
lradius 25.7864 
lwrist -9.1798 
lhand -5.62961 43.1542 
lfingers 7.12502 
lthumb 20.1884 72.1251 
rfemur -28.1058 1.56709 22.3158 
rtibia 24.8401 
rfoot -5.05071 -7.16804 
rtoes 3.19095 
lfemur 0.0723906 -6.83718 -24.4294 
ltibia 21.4526 
lfoot -17.6291 -11.8198 
ltoes 20.8798 
1256
root 11.4444 17.8592 13.2794 -177.241 -115.164 -180.157 
lowerback 3.39952 -1.54951 -3.87171 
upperback 1.07252 -2.19658 0.522083 
thorax -0.636662 -1.10545 2.78875 
lowerneck -16.6637 -3.14414 -11.4537 
upperneck 23.7273 -1.32001 -0.437623 
head 10.5191 -1.79242 1.54192 
rclavicle 4.33351e-14 1.31198e-14 
rhumerus -33.9505 -17.8437 -70.4039 
rradius 28.7598 
rwrist -14.1073 
rhand -18.8613 22.9676 
rfingers 7.12502 
rthumb 7.43901 -6.88159 
lclavicle 4.33351e-14 1.31198e-14 
lhumerus -32.1419 21.3931 64.1884 
lradius 25.7951 
lwrist -10.1094 
lhand -4.44998 43.4131 
lfingers 7.12502 
lthumb 21.3218 72.2601 
rfemur -28.7614 0.834264 22.0778 
rtibia 24.3671 
rfoot -4.33972 -5.83357 
rtoes -1.48512 
lfemur 0.215959 -7.05543 -25.4717 
ltibia 20.9168 
lfoot -17.6172 -11.6593 
ltoes 17.2653 
1257
root 11.4065 17.8564 13.3444 -177.126 -116.065 -180.109 
lowerback 3.38972 -1.52753 -3.97954 
upperback 1.07561 -2.16914 0.642379 
thorax -0.621231 -1.09238 2.97176 
lowerneck -16.7278 -2.95539 -11.1758 
upperneck 23.6454 -0.997845 -0.921745 
head 10.4801 -1.67495 1.36767 
rclavicle -9.87711e-15 -6.26172e-15 
rhumerus -33.8325 -17.3765 -69.818 
rradius 29.0065 
rwrist -14.4051 
rhand -18.5386 23.1425 
rfingers 7.12502 
rthumb 7.75055 -6.6955 
lclavicle -9.87711e-15 -6.26172e-15 
lhumerus -32.2414 21.6235 64.1806 
lradius 25.7466 
lwrist -10.9174 
lhand -3.6846 43.4172 
lfingers 7.12502 
lthumb 22.0568 72.1793 
rfemur -29.2799 0.179119 22.6928 
rtibia 23.9039 
rfoot -3.96087 -4.66238 
rtoes -4.53411 
lfemur 0.536051 -7.25612 -25.612 
ltibia 20.2896 
lfoot -17.4417 -11.6616 
ltoes 14.8631 
1258
root 11.3663 17.854 13.4068 -177.525 -117.021 -179.496 
lowerback 3.41613 -1.58641 -4.39152 
upperback 1.02084 -2.26307 0.648605 
thorax -0.668068 -1.13746 3.21432 
lowerneck -16.6643 -2.75279 -11.0066 
upperneck 23.6719 -0.708235 -1.15962 
head 10.4605 -1.55784 1.29608 
rclavicle -4.09993e-16 -1.37161e-14 
rhumerus -33.817 -17.0987 -69.2828 
rradius 29.291 
rwrist -14.455 
rhand -18.2955 22.9716 
rfingers 7.12502 
rthumb 7.98515 -6.85753 
lclavicle -4.09993e-16 -1.37161e-14 
lhumerus -32.4852 20.6879 64.5283 
lradius 25.8842 
lwrist -9.433 
lhand -4.98124 42.9103 
lfingers 7.12502 
lthumb 20.8114 71.8142 
rfemur -29.6157 -0.309787 22.9684 
rtibia 23.1948 
rfoot -4.20471 -3.88673 
rtoes -4.01576 
lfemur 0.793424 -7.31665 -25.9518 
ltibia 19.7851 
lfoot -16.8958 -12.3811 
ltoes 15.6128 
